<svg width="20" height="16" viewBox="0 0 20 16" fill="none" xmlns="http://www.w3.org/2000/svg">
<path d="M15 6.33325H13.95C13.6382 5.12575 12.994 4.02991 12.0905 3.17025C11.1871 2.31059 10.0606 1.72158 8.83911 1.47015C7.61762 1.21872 6.35009 1.31495 5.18056 1.74791C4.01102 2.18087 2.98638 2.9332 2.22305 3.9194C1.45973 4.90561 0.988336 6.08615 0.862433 7.32688C0.736531 8.56761 0.96117 9.81878 1.51082 10.9382C2.06048 12.0577 2.91311 13.0005 3.97183 13.6596C5.03055 14.3186 6.25291 14.6675 7.50001 14.6666H15C16.1051 14.6666 17.1649 14.2276 17.9463 13.4462C18.7277 12.6648 19.1667 11.605 19.1667 10.4999C19.1667 9.39485 18.7277 8.33504 17.9463 7.55364C17.1649 6.77224 16.1051 6.33325 15 6.33325Z" stroke="#4D4D4D" stroke-width="2" stroke-linecap="round" stroke-linejoin="round"/>
</svg>
