<svg width="351" height="62" viewBox="0 0 351 62" fill="none" xmlns="http://www.w3.org/2000/svg">
<g filter="url(#filter0_dd_282_5199)">
<rect x="3" y="3" width="345" height="54" rx="10" fill="white"/>
<rect x="45" y="3" width="261" height="54" rx="10" fill="white"/>
<rect width="24" height="24" transform="translate(60 18)" fill="white"/>
<path fill-rule="evenodd" clip-rule="evenodd" d="M83.04 30.2615C83.04 29.446 82.9668 28.6619 82.8309 27.9092H72V32.3576H78.1891C77.9225 33.7951 77.1123 35.013 75.8943 35.8285V38.714H79.6109C81.7855 36.7119 83.04 33.7637 83.04 30.2615Z" fill="#4285F4"/>
<path fill-rule="evenodd" clip-rule="evenodd" d="M72 41.5001C75.105 41.5001 77.7081 40.4703 79.6109 38.7139L75.8943 35.8285C74.8645 36.5185 73.5472 36.9262 72 36.9262C69.0047 36.9262 66.4695 34.9032 65.5652 32.1851H61.7231V35.1646C63.6154 38.923 67.5045 41.5001 72 41.5001Z" fill="#34A853"/>
<path fill-rule="evenodd" clip-rule="evenodd" d="M65.5652 32.185C65.3352 31.495 65.2045 30.7579 65.2045 30C65.2045 29.242 65.3352 28.505 65.5652 27.815V24.8354H61.7232C60.9443 26.3879 60.5 28.1443 60.5 30C60.5 31.8557 60.9443 33.612 61.7232 35.1645L65.5652 32.185Z" fill="#FBBC05"/>
<path fill-rule="evenodd" clip-rule="evenodd" d="M72 23.0739C73.6884 23.0739 75.2043 23.6541 76.3961 24.7936L79.6945 21.4952C77.7029 19.6395 75.0997 18.5 72 18.5C67.5045 18.5 63.6154 21.077 61.7231 24.8355L65.5652 27.815C66.4695 25.0968 69.0047 23.0739 72 23.0739Z" fill="#EA4335"/>
<path d="M108.844 31.3711H111.285C111.207 32.3021 110.947 33.1322 110.504 33.8613C110.061 34.584 109.439 35.1536 108.639 35.5703C107.838 35.987 106.865 36.1953 105.719 36.1953C104.84 36.1953 104.049 36.0391 103.346 35.7266C102.643 35.4076 102.04 34.9583 101.539 34.3789C101.038 33.793 100.654 33.0866 100.387 32.2598C100.126 31.4329 99.9961 30.5085 99.9961 29.4863V28.3047C99.9961 27.2826 100.13 26.3581 100.396 25.5312C100.67 24.7044 101.061 23.998 101.568 23.4121C102.076 22.8197 102.685 22.3672 103.395 22.0547C104.111 21.7422 104.915 21.5859 105.807 21.5859C106.939 21.5859 107.896 21.7943 108.678 22.2109C109.459 22.6276 110.064 23.2038 110.494 23.9395C110.93 24.6751 111.197 25.5182 111.295 26.4688H108.854C108.788 25.8568 108.645 25.3327 108.424 24.8965C108.209 24.4603 107.89 24.1283 107.467 23.9004C107.044 23.666 106.49 23.5488 105.807 23.5488C105.247 23.5488 104.758 23.653 104.342 23.8613C103.925 24.0697 103.577 24.3757 103.297 24.7793C103.017 25.1829 102.805 25.681 102.662 26.2734C102.525 26.8594 102.457 27.5299 102.457 28.2852V29.4863C102.457 30.2025 102.519 30.8535 102.643 31.4395C102.773 32.0189 102.968 32.5169 103.229 32.9336C103.495 33.3503 103.834 33.6725 104.244 33.9004C104.654 34.1283 105.146 34.2422 105.719 34.2422C106.415 34.2422 106.979 34.1315 107.408 33.9102C107.844 33.6888 108.173 33.3665 108.395 32.9434C108.622 32.5137 108.772 31.9896 108.844 31.3711ZM112.828 30.834V30.6094C112.828 29.8477 112.939 29.1413 113.16 28.4902C113.382 27.8327 113.701 27.263 114.117 26.7812C114.54 26.293 115.055 25.9154 115.66 25.6484C116.272 25.375 116.962 25.2383 117.73 25.2383C118.505 25.2383 119.195 25.375 119.801 25.6484C120.413 25.9154 120.93 26.293 121.354 26.7812C121.777 27.263 122.099 27.8327 122.32 28.4902C122.542 29.1413 122.652 29.8477 122.652 30.6094V30.834C122.652 31.5957 122.542 32.3021 122.32 32.9531C122.099 33.6042 121.777 34.1738 121.354 34.6621C120.93 35.1439 120.416 35.5215 119.811 35.7949C119.205 36.0618 118.518 36.1953 117.75 36.1953C116.975 36.1953 116.282 36.0618 115.67 35.7949C115.064 35.5215 114.55 35.1439 114.127 34.6621C113.704 34.1738 113.382 33.6042 113.16 32.9531C112.939 32.3021 112.828 31.5957 112.828 30.834ZM115.182 30.6094V30.834C115.182 31.3092 115.23 31.7585 115.328 32.1816C115.426 32.6048 115.579 32.9759 115.787 33.2949C115.995 33.6139 116.262 33.8646 116.588 34.0469C116.913 34.2292 117.301 34.3203 117.75 34.3203C118.186 34.3203 118.564 34.2292 118.883 34.0469C119.208 33.8646 119.475 33.6139 119.684 33.2949C119.892 32.9759 120.045 32.6048 120.143 32.1816C120.247 31.7585 120.299 31.3092 120.299 30.834V30.6094C120.299 30.1406 120.247 29.6979 120.143 29.2812C120.045 28.8581 119.889 28.4837 119.674 28.1582C119.465 27.8327 119.199 27.5788 118.873 27.3965C118.554 27.2077 118.173 27.1133 117.73 27.1133C117.288 27.1133 116.904 27.2077 116.578 27.3965C116.259 27.5788 115.995 27.8327 115.787 28.1582C115.579 28.4837 115.426 28.8581 115.328 29.2812C115.23 29.6979 115.182 30.1406 115.182 30.6094ZM126.959 27.6895V36H124.605V25.4336H126.822L126.959 27.6895ZM126.539 30.3262L125.777 30.3164C125.784 29.5677 125.888 28.8809 126.09 28.2559C126.298 27.6309 126.585 27.0938 126.949 26.6445C127.32 26.1953 127.763 25.8503 128.277 25.6094C128.792 25.362 129.365 25.2383 129.996 25.2383C130.504 25.2383 130.963 25.3099 131.373 25.4531C131.79 25.5898 132.145 25.8145 132.438 26.127C132.737 26.4395 132.965 26.8464 133.121 27.3477C133.277 27.8424 133.355 28.4512 133.355 29.1738V36H130.992V29.1641C130.992 28.6562 130.917 28.2559 130.768 27.9629C130.624 27.6634 130.413 27.4518 130.133 27.3281C129.859 27.1979 129.518 27.1328 129.107 27.1328C128.704 27.1328 128.342 27.2174 128.023 27.3867C127.704 27.556 127.434 27.7871 127.213 28.0801C126.998 28.373 126.832 28.7116 126.715 29.0957C126.598 29.4798 126.539 29.89 126.539 30.3262ZM140.602 25.4336V27.1523H134.645V25.4336H140.602ZM136.363 22.8457H138.717V33.0801C138.717 33.4056 138.762 33.6562 138.854 33.832C138.951 34.0013 139.085 34.1152 139.254 34.1738C139.423 34.2324 139.622 34.2617 139.85 34.2617C140.012 34.2617 140.169 34.252 140.318 34.2324C140.468 34.2129 140.589 34.1934 140.68 34.1738L140.689 35.9707C140.494 36.0293 140.266 36.0814 140.006 36.127C139.752 36.1725 139.459 36.1953 139.127 36.1953C138.587 36.1953 138.108 36.1009 137.691 35.9121C137.275 35.7168 136.949 35.401 136.715 34.9648C136.48 34.5286 136.363 33.9492 136.363 33.2266V22.8457ZM144.938 25.4336V36H142.574V25.4336H144.938ZM142.418 22.6602C142.418 22.3021 142.535 22.0059 142.77 21.7715C143.01 21.5306 143.342 21.4102 143.766 21.4102C144.182 21.4102 144.511 21.5306 144.752 21.7715C144.993 22.0059 145.113 22.3021 145.113 22.6602C145.113 23.0117 144.993 23.3047 144.752 23.5391C144.511 23.7734 144.182 23.8906 143.766 23.8906C143.342 23.8906 143.01 23.7734 142.77 23.5391C142.535 23.3047 142.418 23.0117 142.418 22.6602ZM149.85 27.6895V36H147.496V25.4336H149.713L149.85 27.6895ZM149.43 30.3262L148.668 30.3164C148.674 29.5677 148.779 28.8809 148.98 28.2559C149.189 27.6309 149.475 27.0938 149.84 26.6445C150.211 26.1953 150.654 25.8503 151.168 25.6094C151.682 25.362 152.255 25.2383 152.887 25.2383C153.395 25.2383 153.854 25.3099 154.264 25.4531C154.68 25.5898 155.035 25.8145 155.328 26.127C155.628 26.4395 155.855 26.8464 156.012 27.3477C156.168 27.8424 156.246 28.4512 156.246 29.1738V36H153.883V29.1641C153.883 28.6562 153.808 28.2559 153.658 27.9629C153.515 27.6634 153.303 27.4518 153.023 27.3281C152.75 27.1979 152.408 27.1328 151.998 27.1328C151.594 27.1328 151.233 27.2174 150.914 27.3867C150.595 27.556 150.325 27.7871 150.104 28.0801C149.889 28.373 149.723 28.7116 149.605 29.0957C149.488 29.4798 149.43 29.89 149.43 30.3262ZM165.006 33.5098V25.4336H167.369V36H165.143L165.006 33.5098ZM165.338 31.3125L166.129 31.293C166.129 32.0026 166.051 32.6569 165.895 33.2559C165.738 33.8483 165.497 34.3659 165.172 34.8086C164.846 35.2448 164.43 35.5866 163.922 35.834C163.414 36.0749 162.805 36.1953 162.096 36.1953C161.581 36.1953 161.109 36.1204 160.68 35.9707C160.25 35.821 159.879 35.5898 159.566 35.2773C159.26 34.9648 159.023 34.5579 158.854 34.0566C158.684 33.5553 158.6 32.9564 158.6 32.2598V25.4336H160.953V32.2793C160.953 32.6634 160.999 32.9857 161.09 33.2461C161.181 33.5 161.305 33.7051 161.461 33.8613C161.617 34.0176 161.799 34.1283 162.008 34.1934C162.216 34.2585 162.438 34.291 162.672 34.291C163.342 34.291 163.87 34.1608 164.254 33.9004C164.645 33.6335 164.921 33.2754 165.084 32.8262C165.253 32.377 165.338 31.8724 165.338 31.3125ZM174.439 36.1953C173.658 36.1953 172.952 36.0684 172.32 35.8145C171.695 35.554 171.161 35.1927 170.719 34.7305C170.283 34.2682 169.947 33.7246 169.713 33.0996C169.479 32.4746 169.361 31.8008 169.361 31.0781V30.6875C169.361 29.8607 169.482 29.112 169.723 28.4414C169.964 27.7708 170.299 27.1979 170.729 26.7227C171.158 26.2409 171.666 25.873 172.252 25.6191C172.838 25.3652 173.473 25.2383 174.156 25.2383C174.911 25.2383 175.572 25.3652 176.139 25.6191C176.705 25.873 177.174 26.2311 177.545 26.6934C177.923 27.1491 178.202 27.6927 178.385 28.3242C178.574 28.9557 178.668 29.6523 178.668 30.4141V31.4199H170.504V29.7305H176.344V29.5449C176.331 29.1217 176.246 28.7246 176.09 28.3535C175.94 27.9824 175.709 27.6829 175.396 27.4551C175.084 27.2272 174.667 27.1133 174.146 27.1133C173.756 27.1133 173.408 27.1979 173.102 27.3672C172.802 27.5299 172.551 27.7676 172.35 28.0801C172.148 28.3926 171.992 28.7702 171.881 29.2129C171.777 29.6491 171.725 30.1406 171.725 30.6875V31.0781C171.725 31.5404 171.786 31.9701 171.91 32.3672C172.04 32.7578 172.229 33.0996 172.477 33.3926C172.724 33.6855 173.023 33.9167 173.375 34.0859C173.727 34.2487 174.127 34.3301 174.576 34.3301C175.143 34.3301 175.647 34.2161 176.09 33.9883C176.533 33.7604 176.917 33.4382 177.242 33.0215L178.482 34.2227C178.255 34.5547 177.958 34.8737 177.594 35.1797C177.229 35.4792 176.783 35.7233 176.256 35.9121C175.735 36.1009 175.13 36.1953 174.439 36.1953ZM188.355 33.6562L190.797 25.4336H192.301L191.891 27.8945L189.43 36H188.082L188.355 33.6562ZM186.92 25.4336L188.824 33.6953L188.98 36H187.477L184.615 25.4336H186.92ZM194.586 33.5977L196.432 25.4336H198.727L195.875 36H194.371L194.586 33.5977ZM192.555 25.4336L194.967 33.5586L195.27 36H193.922L191.432 27.8848L191.021 25.4336H192.555ZM202.848 25.4336V36H200.484V25.4336H202.848ZM200.328 22.6602C200.328 22.3021 200.445 22.0059 200.68 21.7715C200.921 21.5306 201.253 21.4102 201.676 21.4102C202.092 21.4102 202.421 21.5306 202.662 21.7715C202.903 22.0059 203.023 22.3021 203.023 22.6602C203.023 23.0117 202.903 23.3047 202.662 23.5391C202.421 23.7734 202.092 23.8906 201.676 23.8906C201.253 23.8906 200.921 23.7734 200.68 23.5391C200.445 23.3047 200.328 23.0117 200.328 22.6602ZM210.27 25.4336V27.1523H204.312V25.4336H210.27ZM206.031 22.8457H208.385V33.0801C208.385 33.4056 208.43 33.6562 208.521 33.832C208.619 34.0013 208.753 34.1152 208.922 34.1738C209.091 34.2324 209.29 34.2617 209.518 34.2617C209.68 34.2617 209.837 34.252 209.986 34.2324C210.136 34.2129 210.257 34.1934 210.348 34.1738L210.357 35.9707C210.162 36.0293 209.934 36.0814 209.674 36.127C209.42 36.1725 209.127 36.1953 208.795 36.1953C208.255 36.1953 207.776 36.1009 207.359 35.9121C206.943 35.7168 206.617 35.401 206.383 34.9648C206.148 34.5286 206.031 33.9492 206.031 33.2266V22.8457ZM214.41 21V36H212.066V21H214.41ZM214 30.3262L213.238 30.3164C213.245 29.5872 213.346 28.9134 213.541 28.2949C213.743 27.6764 214.023 27.1393 214.381 26.6836C214.745 26.2214 215.182 25.8665 215.689 25.6191C216.197 25.3652 216.76 25.2383 217.379 25.2383C217.9 25.2383 218.368 25.3099 218.785 25.4531C219.208 25.5964 219.573 25.8275 219.879 26.1465C220.185 26.459 220.416 26.8691 220.572 27.377C220.735 27.8783 220.816 28.4902 220.816 29.2129V36H218.453V29.1934C218.453 28.6855 218.378 28.2819 218.229 27.9824C218.085 27.6829 217.874 27.4681 217.594 27.3379C217.314 27.2012 216.972 27.1328 216.568 27.1328C216.145 27.1328 215.771 27.2174 215.445 27.3867C215.126 27.556 214.859 27.7871 214.645 28.0801C214.43 28.373 214.267 28.7116 214.156 29.0957C214.052 29.4798 214 29.89 214 30.3262ZM239.332 28.7344V34.1641C239.13 34.431 238.814 34.724 238.385 35.043C237.962 35.3555 237.398 35.6257 236.695 35.8535C235.992 36.0814 235.117 36.1953 234.068 36.1953C233.176 36.1953 232.359 36.0456 231.617 35.7461C230.875 35.4401 230.234 34.9941 229.693 34.4082C229.16 33.8223 228.746 33.1094 228.453 32.2695C228.16 31.4232 228.014 30.4596 228.014 29.3789V28.3926C228.014 27.3184 228.147 26.3613 228.414 25.5215C228.688 24.6751 229.078 23.959 229.586 23.373C230.094 22.7871 230.706 22.3444 231.422 22.0449C232.145 21.7389 232.962 21.5859 233.873 21.5859C235.038 21.5859 236.002 21.7812 236.764 22.1719C237.532 22.556 238.124 23.0898 238.541 23.7734C238.958 24.457 239.221 25.2383 239.332 26.1172H236.93C236.852 25.6224 236.699 25.1797 236.471 24.7891C236.249 24.3984 235.93 24.0924 235.514 23.8711C235.104 23.6432 234.57 23.5293 233.912 23.5293C233.346 23.5293 232.848 23.6367 232.418 23.8516C231.988 24.0664 231.63 24.3822 231.344 24.7988C231.064 25.2155 230.852 25.7233 230.709 26.3223C230.566 26.9212 230.494 27.6048 230.494 28.373V29.3789C230.494 30.1602 230.576 30.8535 230.738 31.459C230.908 32.0645 231.148 32.5755 231.461 32.9922C231.78 33.4089 232.167 33.7246 232.623 33.9395C233.079 34.1478 233.593 34.252 234.166 34.252C234.726 34.252 235.185 34.2064 235.543 34.1152C235.901 34.0176 236.184 33.9036 236.393 33.7734C236.607 33.6367 236.773 33.5065 236.891 33.3828V30.5605H233.932V28.7344H239.332ZM241.363 30.834V30.6094C241.363 29.8477 241.474 29.1413 241.695 28.4902C241.917 27.8327 242.236 27.263 242.652 26.7812C243.076 26.293 243.59 25.9154 244.195 25.6484C244.807 25.375 245.497 25.2383 246.266 25.2383C247.04 25.2383 247.73 25.375 248.336 25.6484C248.948 25.9154 249.465 26.293 249.889 26.7812C250.312 27.263 250.634 27.8327 250.855 28.4902C251.077 29.1413 251.188 29.8477 251.188 30.6094V30.834C251.188 31.5957 251.077 32.3021 250.855 32.9531C250.634 33.6042 250.312 34.1738 249.889 34.6621C249.465 35.1439 248.951 35.5215 248.346 35.7949C247.74 36.0618 247.053 36.1953 246.285 36.1953C245.51 36.1953 244.817 36.0618 244.205 35.7949C243.6 35.5215 243.085 35.1439 242.662 34.6621C242.239 34.1738 241.917 33.6042 241.695 32.9531C241.474 32.3021 241.363 31.5957 241.363 30.834ZM243.717 30.6094V30.834C243.717 31.3092 243.766 31.7585 243.863 32.1816C243.961 32.6048 244.114 32.9759 244.322 33.2949C244.531 33.6139 244.798 33.8646 245.123 34.0469C245.449 34.2292 245.836 34.3203 246.285 34.3203C246.721 34.3203 247.099 34.2292 247.418 34.0469C247.743 33.8646 248.01 33.6139 248.219 33.2949C248.427 32.9759 248.58 32.6048 248.678 32.1816C248.782 31.7585 248.834 31.3092 248.834 30.834V30.6094C248.834 30.1406 248.782 29.6979 248.678 29.2812C248.58 28.8581 248.424 28.4837 248.209 28.1582C248.001 27.8327 247.734 27.5788 247.408 27.3965C247.089 27.2077 246.708 27.1133 246.266 27.1133C245.823 27.1133 245.439 27.2077 245.113 27.3965C244.794 27.5788 244.531 27.8327 244.322 28.1582C244.114 28.4837 243.961 28.8581 243.863 29.2812C243.766 29.6979 243.717 30.1406 243.717 30.6094ZM252.711 30.834V30.6094C252.711 29.8477 252.822 29.1413 253.043 28.4902C253.264 27.8327 253.583 27.263 254 26.7812C254.423 26.293 254.938 25.9154 255.543 25.6484C256.155 25.375 256.845 25.2383 257.613 25.2383C258.388 25.2383 259.078 25.375 259.684 25.6484C260.296 25.9154 260.813 26.293 261.236 26.7812C261.66 27.263 261.982 27.8327 262.203 28.4902C262.424 29.1413 262.535 29.8477 262.535 30.6094V30.834C262.535 31.5957 262.424 32.3021 262.203 32.9531C261.982 33.6042 261.66 34.1738 261.236 34.6621C260.813 35.1439 260.299 35.5215 259.693 35.7949C259.088 36.0618 258.401 36.1953 257.633 36.1953C256.858 36.1953 256.165 36.0618 255.553 35.7949C254.947 35.5215 254.433 35.1439 254.01 34.6621C253.587 34.1738 253.264 33.6042 253.043 32.9531C252.822 32.3021 252.711 31.5957 252.711 30.834ZM255.064 30.6094V30.834C255.064 31.3092 255.113 31.7585 255.211 32.1816C255.309 32.6048 255.462 32.9759 255.67 33.2949C255.878 33.6139 256.145 33.8646 256.471 34.0469C256.796 34.2292 257.184 34.3203 257.633 34.3203C258.069 34.3203 258.447 34.2292 258.766 34.0469C259.091 33.8646 259.358 33.6139 259.566 33.2949C259.775 32.9759 259.928 32.6048 260.025 32.1816C260.13 31.7585 260.182 31.3092 260.182 30.834V30.6094C260.182 30.1406 260.13 29.6979 260.025 29.2812C259.928 28.8581 259.771 28.4837 259.557 28.1582C259.348 27.8327 259.081 27.5788 258.756 27.3965C258.437 27.2077 258.056 27.1133 257.613 27.1133C257.171 27.1133 256.786 27.2077 256.461 27.3965C256.142 27.5788 255.878 27.8327 255.67 28.1582C255.462 28.4837 255.309 28.8581 255.211 29.2812C255.113 29.6979 255.064 30.1406 255.064 30.6094ZM271.275 25.4336H273.414V35.707C273.414 36.6576 273.212 37.4648 272.809 38.1289C272.405 38.793 271.842 39.2975 271.119 39.6426C270.396 39.9941 269.56 40.1699 268.609 40.1699C268.206 40.1699 267.757 40.1113 267.262 39.9941C266.773 39.877 266.298 39.6882 265.836 39.4277C265.38 39.1738 264.999 38.8385 264.693 38.4219L265.797 37.0352C266.174 37.4844 266.591 37.8132 267.047 38.0215C267.503 38.2298 267.981 38.334 268.482 38.334C269.023 38.334 269.482 38.2331 269.859 38.0312C270.243 37.8359 270.54 37.5462 270.748 37.1621C270.956 36.778 271.061 36.3092 271.061 35.7559V27.8262L271.275 25.4336ZM264.098 30.834V30.6289C264.098 29.8281 264.195 29.099 264.391 28.4414C264.586 27.7773 264.866 27.2077 265.23 26.7324C265.595 26.2507 266.038 25.8828 266.559 25.6289C267.079 25.3685 267.669 25.2383 268.326 25.2383C269.01 25.2383 269.592 25.362 270.074 25.6094C270.562 25.8568 270.969 26.2116 271.295 26.6738C271.62 27.1296 271.874 27.6764 272.057 28.3145C272.245 28.946 272.385 29.6491 272.477 30.4238V31.0781C272.392 31.8333 272.249 32.5234 272.047 33.1484C271.845 33.7734 271.578 34.3138 271.246 34.7695C270.914 35.2253 270.504 35.5768 270.016 35.8242C269.534 36.0716 268.964 36.1953 268.307 36.1953C267.662 36.1953 267.079 36.0618 266.559 35.7949C266.044 35.528 265.602 35.1536 265.23 34.6719C264.866 34.1901 264.586 33.6237 264.391 32.9727C264.195 32.3151 264.098 31.6022 264.098 30.834ZM266.451 30.6289V30.834C266.451 31.3158 266.497 31.765 266.588 32.1816C266.686 32.5983 266.832 32.9661 267.027 33.2852C267.229 33.5977 267.483 33.8451 267.789 34.0273C268.102 34.2031 268.469 34.291 268.893 34.291C269.446 34.291 269.898 34.1738 270.25 33.9395C270.608 33.7051 270.882 33.3893 271.07 32.9922C271.266 32.5885 271.402 32.1393 271.48 31.6445V29.877C271.441 29.4928 271.36 29.1348 271.236 28.8027C271.119 28.4707 270.96 28.181 270.758 27.9336C270.556 27.6797 270.302 27.4844 269.996 27.3477C269.69 27.2044 269.329 27.1328 268.912 27.1328C268.489 27.1328 268.121 27.224 267.809 27.4062C267.496 27.5885 267.239 27.8392 267.037 28.1582C266.842 28.4772 266.695 28.8483 266.598 29.2715C266.5 29.6947 266.451 30.1471 266.451 30.6289ZM278.375 21V36H276.012V21H278.375ZM285.611 36.1953C284.83 36.1953 284.124 36.0684 283.492 35.8145C282.867 35.554 282.333 35.1927 281.891 34.7305C281.454 34.2682 281.119 33.7246 280.885 33.0996C280.65 32.4746 280.533 31.8008 280.533 31.0781V30.6875C280.533 29.8607 280.654 29.112 280.895 28.4414C281.135 27.7708 281.471 27.1979 281.9 26.7227C282.33 26.2409 282.838 25.873 283.424 25.6191C284.01 25.3652 284.645 25.2383 285.328 25.2383C286.083 25.2383 286.744 25.3652 287.311 25.6191C287.877 25.873 288.346 26.2311 288.717 26.6934C289.094 27.1491 289.374 27.6927 289.557 28.3242C289.745 28.9557 289.84 29.6523 289.84 30.4141V31.4199H281.676V29.7305H287.516V29.5449C287.503 29.1217 287.418 28.7246 287.262 28.3535C287.112 27.9824 286.881 27.6829 286.568 27.4551C286.256 27.2272 285.839 27.1133 285.318 27.1133C284.928 27.1133 284.579 27.1979 284.273 27.3672C283.974 27.5299 283.723 27.7676 283.521 28.0801C283.32 28.3926 283.163 28.7702 283.053 29.2129C282.949 29.6491 282.896 30.1406 282.896 30.6875V31.0781C282.896 31.5404 282.958 31.9701 283.082 32.3672C283.212 32.7578 283.401 33.0996 283.648 33.3926C283.896 33.6855 284.195 33.9167 284.547 34.0859C284.898 34.2487 285.299 34.3301 285.748 34.3301C286.314 34.3301 286.819 34.2161 287.262 33.9883C287.704 33.7604 288.089 33.4382 288.414 33.0215L289.654 34.2227C289.426 34.5547 289.13 34.8737 288.766 35.1797C288.401 35.4792 287.955 35.7233 287.428 35.9121C286.907 36.1009 286.301 36.1953 285.611 36.1953Z" fill="black" fill-opacity="0.54"/>
</g>
<defs>
<filter id="filter0_dd_282_5199" x="0" y="0" width="351" height="62" filterUnits="userSpaceOnUse" color-interpolation-filters="sRGB">
<feFlood flood-opacity="0" result="BackgroundImageFix"/>
<feColorMatrix in="SourceAlpha" type="matrix" values="0 0 0 0 0 0 0 0 0 0 0 0 0 0 0 0 0 0 127 0" result="hardAlpha"/>
<feOffset dy="2"/>
<feGaussianBlur stdDeviation="1.5"/>
<feColorMatrix type="matrix" values="0 0 0 0 0 0 0 0 0 0 0 0 0 0 0 0 0 0 0.168 0"/>
<feBlend mode="normal" in2="BackgroundImageFix" result="effect1_dropShadow_282_5199"/>
<feColorMatrix in="SourceAlpha" type="matrix" values="0 0 0 0 0 0 0 0 0 0 0 0 0 0 0 0 0 0 127 0" result="hardAlpha"/>
<feOffset/>
<feGaussianBlur stdDeviation="1.5"/>
<feColorMatrix type="matrix" values="0 0 0 0 0 0 0 0 0 0 0 0 0 0 0 0 0 0 0.084 0"/>
<feBlend mode="normal" in2="effect1_dropShadow_282_5199" result="effect2_dropShadow_282_5199"/>
<feBlend mode="normal" in="SourceGraphic" in2="effect2_dropShadow_282_5199" result="shape"/>
</filter>
</defs>
</svg>
