<svg width="32" height="32" viewBox="0 0 32 32" fill="none" xmlns="http://www.w3.org/2000/svg">
<path d="M22.6667 4.00008C23.0169 3.64989 23.4327 3.3721 23.8902 3.18258C24.3478 2.99305 24.8382 2.89551 25.3334 2.89551C25.8287 2.89551 26.3191 2.99305 26.7766 3.18258C27.2342 3.3721 27.6499 3.64989 28.0001 4.00008C28.3503 4.35027 28.6281 4.76601 28.8176 5.22355C29.0071 5.6811 29.1047 6.1715 29.1047 6.66674C29.1047 7.16199 29.0071 7.65239 28.8176 8.10993C28.6281 8.56748 28.3503 8.98322 28.0001 9.33341L10.0001 27.3334L2.66675 29.3334L4.66675 22.0001L22.6667 4.00008Z" stroke="#223A58" stroke-width="3" stroke-linecap="round" stroke-linejoin="round"/>
</svg>
